<mxfile host="app.diagrams.net" modified="2023-09-22T12:06:23.813Z" agent="Mozilla/5.0 (Macintosh; Intel Mac OS X 10_15_7) AppleWebKit/605.1.15 (KHTML, like Gecko) Version/16.1 Safari/605.1.15" version="21.8.0" etag="QxbWfzu6ti-8VyF4iaQ3" type="github">
  <diagram name="Page-1" id="tO6_8p4xxkTOUlsUOWfr">
    <mxGraphModel>
      <root>
        <mxCell id="0" />
        <mxCell id="1" parent="0" />
      </root>
    </mxGraphModel>
  </diagram>
</mxfile>
